<svg width="20" height="20" viewBox="0 0 20 20" fill="none" xmlns="http://www.w3.org/2000/svg">
<rect width="20" height="20" rx="4" fill="black"/>
<path fill-rule="evenodd" clip-rule="evenodd" d="M12.8333 3.625C13.7726 3.625 14.6735 3.99814 15.3377 4.66233C16.0019 5.32652 16.375 6.22736 16.375 7.16667V12.8333C16.375 13.7726 16.0019 14.6735 15.3377 15.3377C14.6735 16.0019 13.7726 16.375 12.8333 16.375H7.16667C6.22736 16.375 5.32652 16.0019 4.66233 15.3377C3.99814 14.6735 3.625 13.7726 3.625 12.8333V7.16667C3.625 6.22736 3.99814 5.32652 4.66233 4.66233C5.32652 3.99814 6.22736 3.625 7.16667 3.625H12.8333ZM12.8333 5.04167H7.16667C6.60308 5.04167 6.06258 5.26555 5.66406 5.66406C5.26555 6.06258 5.04167 6.60308 5.04167 7.16667V12.8333C5.04167 13.3969 5.26555 13.9374 5.66406 14.3359C6.06258 14.7345 6.60308 14.9583 7.16667 14.9583H12.8333C13.3969 14.9583 13.9374 14.7345 14.3359 14.3359C14.7345 13.9374 14.9583 13.3969 14.9583 12.8333V7.16667C14.9583 6.60308 14.7345 6.06258 14.3359 5.66406C13.9374 5.26555 13.3969 5.04167 12.8333 5.04167ZM10 7.16667C10.7514 7.16667 11.4721 7.46518 12.0035 7.99653C12.5348 8.52788 12.8333 9.24855 12.8333 10C12.8333 10.7514 12.5348 11.4721 12.0035 12.0035C11.4721 12.5348 10.7514 12.8333 10 12.8333C9.24855 12.8333 8.52788 12.5348 7.99653 12.0035C7.46518 11.4721 7.16667 10.7514 7.16667 10C7.16667 9.24855 7.46518 8.52788 7.99653 7.99653C8.52788 7.46518 9.24855 7.16667 10 7.16667ZM10 8.58333C9.62428 8.58333 9.26394 8.73259 8.99827 8.99827C8.73259 9.26394 8.58333 9.62428 8.58333 10C8.58333 10.3757 8.73259 10.7361 8.99827 11.0017C9.26394 11.2674 9.62428 11.4167 10 11.4167C10.3757 11.4167 10.7361 11.2674 11.0017 11.0017C11.2674 10.7361 11.4167 10.3757 11.4167 10C11.4167 9.62428 11.2674 9.26394 11.0017 8.99827C10.7361 8.73259 10.3757 8.58333 10 8.58333ZM13.1875 6.10417C13.3754 6.10417 13.5555 6.17879 13.6884 6.31163C13.8212 6.44447 13.8958 6.62464 13.8958 6.8125C13.8958 7.00036 13.8212 7.18053 13.6884 7.31337C13.5555 7.44621 13.3754 7.52083 13.1875 7.52083C12.9996 7.52083 12.8195 7.44621 12.6866 7.31337C12.5538 7.18053 12.4792 7.00036 12.4792 6.8125C12.4792 6.62464 12.5538 6.44447 12.6866 6.31163C12.8195 6.17879 12.9996 6.10417 13.1875 6.10417Z" fill="#888888"/>
</svg>
